<svg width="16" height="12" viewBox="0 0 16 12" fill="none" xmlns="http://www.w3.org/2000/svg">
<path d="M14.5106 6.74335H2.60754L6.70396 10.7314C6.77491 10.7993 6.83139 10.8809 6.86997 10.9712C6.90855 11.0615 6.92844 11.1587 6.92844 11.2569C6.92844 11.3551 6.90855 11.4523 6.86997 11.5426C6.83139 11.6329 6.77491 11.7145 6.70396 11.7824C6.55883 11.922 6.36528 12 6.1639 12C5.96252 12 5.76897 11.922 5.62385 11.7824L0.224024 6.52515C0.188619 6.49054 0.156704 6.45253 0.128741 6.41168C0.115649 6.39277 0.10692 6.3724 0.0960101 6.35349C0.0823104 6.32995 0.069926 6.30567 0.058915 6.28076C0.0490746 6.2556 0.0408163 6.22985 0.0341863 6.20366C0.0276402 6.18329 0.0196387 6.16365 0.0152746 6.14183C0.00554804 6.09517 0.000432078 6.04766 3.63688e-07 6C-4.84941e-05 5.95115 0.00482543 5.90241 0.0145476 5.85453C0.0189117 5.83198 0.0276402 5.81162 0.0341863 5.7898C0.0405718 5.76513 0.0483421 5.74085 0.0574611 5.71706C0.0694661 5.69211 0.0828207 5.66783 0.0974654 5.64433C0.107648 5.62614 0.115649 5.60723 0.128014 5.58978C0.156071 5.54856 0.188239 5.5103 0.224024 5.47558L5.62385 0.217594C5.76897 0.0779844 5.96252 0 6.1639 0C6.36528 0 6.55883 0.0779844 6.70396 0.217594C6.77503 0.285505 6.83159 0.367117 6.87024 0.457501C6.90889 0.547885 6.92882 0.645166 6.92882 0.743466C6.92882 0.841766 6.90889 0.939046 6.87024 1.02943C6.83159 1.11981 6.77503 1.20143 6.70396 1.26934L2.60754 5.25738H14.5106C14.7103 5.25466 14.9029 5.33135 15.0461 5.47061C15.1894 5.60986 15.2714 5.80027 15.2743 6C15.273 6.09896 15.2521 6.19669 15.213 6.2876C15.1739 6.37852 15.1173 6.46084 15.0464 6.52987C14.9755 6.59889 14.8917 6.65328 14.7997 6.68991C14.7078 6.72654 14.6095 6.7447 14.5106 6.74335Z" fill="black"/>
</svg>
